<?xml version="1.0" encoding="UTF-8"?>
<svg id="Layer_1" data-name="Layer 1" xmlns="http://www.w3.org/2000/svg" viewBox="0 0 316.43 286.81">
  <defs>
    <style>
      .cls-1 {
        fill: #fff;
      }
    </style>
  </defs>
  <path class="cls-1" d="M143.41,286.81C64.33,286.81,0,222.48,0,143.41S64.33,0,143.41,0c15.03,0,29.85,2.32,44.04,6.89,8.52,2.75,13.2,11.88,10.46,20.4-2.75,8.52-11.88,13.2-20.4,10.45-10.97-3.54-22.44-5.33-34.09-5.33-61.2,0-110.99,49.79-110.99,110.99s49.79,110.99,110.99,110.99,110.99-49.79,110.99-110.99c0-7.89-.83-15.76-2.47-23.39-1.88-8.75,3.7-17.37,12.45-19.25,8.76-1.88,17.37,3.7,19.25,12.45,2.11,9.86,3.19,20.02,3.19,30.18,0,79.08-64.33,143.41-143.41,143.41Z"/>
  <g>
    <path class="cls-1" d="M238.36,81.44c-.86-.82-2.68-6.98-3.53-8.69-4.21-8.41-10.99-14.48-19.37-18.55-2.63-1.28-11.89-3.01-6.64-7.28,1.8-1.46,8.06-3.35,10.91-5.05,6.05-3.59,11.56-9.36,14.78-15.65,1.47-2.88,3.08-11.63,7.2-9.74,1.37.63,4.06,8.58,5.24,10.73,3.6,6.6,10.3,13.05,17.03,16.39,2.89,1.44,10.95,2.53,8.91,7.04-.56,1.24-8.92,4.2-11.05,5.41-7.54,4.29-12.79,10.64-16.56,18.37-1.01,2.08-2.88,10.87-6.93,7.03Z"/>
    <g>
      <path class="cls-1" d="M315.93,73.46c-.81.82-5.35,2.05-6.87,2.85-4,2.11-8.66,6.65-10.86,10.59-1.1,1.97-2.03,5.95-3.06,7.28-2.74,3.54-5.32-5.55-6.43-7.46-2.01-3.46-5.04-6.88-8.4-9.06-1.86-1.2-8.5-3.61-9.14-4.32-2.64-2.91,4.88-4.63,6.82-5.66,4.21-2.23,8.06-5.85,10.54-9.91,1.23-2.01,2.58-6.77,3.56-7.91.49-.56.99-.83,1.75-.75,1.6.15,3.66,6.59,4.68,8.34,2.29,3.95,5.46,7.22,9.41,9.55,2.08,1.22,8.26,2.97,8.5,4.92.01.53-.13,1.15-.5,1.53Z"/>
      <path class="cls-1" d="M260.73,18.67c-1.56-2.25,5.76-4.51,7.4-5.73,5.02-3.71,4.77-6.75,7.6-10.86,2.49-3.62,3.22,2.01,4.32,4,1.68,3.03,4.25,5.96,7.23,7.74,1.37.82,6.35,2.33,6.36,3.64-.56,2.04-3.28,2.12-4.95,3.06-2.95,1.67-5.57,3.67-7.46,6.51-1.06,1.6-2.82,7.18-4.33,7.17-1.8-.4-1.67-2.8-2.37-4.13-3.14-5.91-7.2-9.61-13.79-11.4Z"/>
    </g>
  </g>
  <g>
    <path class="cls-1" d="M132.9,90.82c-1.24-2.75-3.17-4.89-5.74-6.35-4.85-2.75-10.86-2.75-15.7,0-2.57,1.46-4.5,3.59-5.73,6.32l-41.99,90.21c-.83,1.81-1.26,3.66-1.26,5.52,0,3.48,1.42,6.44,4.22,8.79,2.61,2.2,5.57,3.31,8.8,3.31,2.41,0,4.64-.62,6.65-1.83,2.07-1.26,3.7-3.18,4.82-5.7l8.14-18.17h48.7l8.13,18.16c1.13,2.53,2.75,4.45,4.82,5.71,2,1.22,4.19,1.83,6.5,1.83,3.35,0,6.34-1.12,8.91-3.34,2.73-2.35,4.11-5.3,4.11-8.76,0-1.86-.42-3.72-1.26-5.53l-42.12-90.17ZM133.78,150.23h-28.66l14.33-32.24,14.33,32.24Z"/>
    <path class="cls-1" d="M206.9,86.3h0c-2.5-2.49-5.81-3.76-9.87-3.76s-7.22,1.26-9.72,3.76c-2.49,2.49-3.76,5.76-3.76,9.72v89.29c0,3.93,1.25,7.22,3.72,9.75,2.49,2.57,5.78,3.87,9.75,3.87s7.41-1.3,9.9-3.87c2.47-2.54,3.72-5.82,3.72-9.75v-89.29c0-3.95-1.26-7.22-3.76-9.72Z"/>
  </g>
</svg>